<svg width="16" height="17" viewBox="0 0 16 17" fill="none" xmlns="http://www.w3.org/2000/svg">
<path d="M11.9992 7.69961H11.1992V5.29961C11.1992 3.53961 9.75922 2.09961 7.99922 2.09961C6.23922 2.09961 4.79922 3.53961 4.79922 5.29961V7.69961H3.99922C3.59922 7.69961 3.19922 8.09961 3.19922 8.49961V14.0996C3.19922 14.4996 3.59922 14.8996 3.99922 14.8996H11.9992C12.3992 14.8996 12.7992 14.4996 12.7992 14.0996V8.49961C12.7992 8.09961 12.3992 7.69961 11.9992 7.69961ZM8.79922 13.2996H7.19922L7.51922 11.5396C7.11922 11.3796 6.79922 10.8996 6.79922 10.4996C6.79922 9.85961 7.35922 9.29961 7.99922 9.29961C8.63922 9.29961 9.19922 9.85961 9.19922 10.4996C9.19922 10.9796 8.95922 11.3796 8.47922 11.5396L8.79922 13.2996ZM9.59922 7.69961H6.39922V5.29961C6.39922 4.41961 7.11922 3.69961 7.99922 3.69961C8.87922 3.69961 9.59922 4.41961 9.59922 5.29961V7.69961Z" fill="#646464"/>
</svg>
