<svg width="164" height="23" viewBox="0 0 164 23" fill="none" xmlns="http://www.w3.org/2000/svg">
<path d="M12.1101 1.07801V7.75011H4.4227V1.07801H0.506464V18H4.4227V11.062H12.1101V18H16.0263V1.07801H12.1101ZM25.9527 18.1934C30.0865 18.1934 33.0841 15.4134 33.0841 11.4971C33.0841 7.58089 30.0865 4.80085 25.9527 4.80085C21.8189 4.80085 18.7971 7.58089 18.7971 11.4971C18.7971 15.4134 21.8189 18.1934 25.9527 18.1934ZM25.9527 15.0991C24.0671 15.0991 22.6167 13.7453 22.6167 11.4971C22.6167 9.24891 24.0671 7.89516 25.9527 7.89516C27.8383 7.89516 29.2646 9.24891 29.2646 11.4971C29.2646 13.7453 27.8383 15.0991 25.9527 15.0991ZM52.2609 4.80085C50.3028 4.80085 48.6106 5.5986 47.5711 6.92818C46.6525 5.5019 45.1053 4.80085 43.2923 4.80085C41.6243 4.80085 40.1738 5.38103 39.2068 6.49305V4.99424H35.6049V18H39.376V11.4729C39.376 9.15222 40.5606 8.06438 42.2286 8.06438C43.7999 8.06438 44.6944 9.03135 44.6944 11.1345V18H48.4656V11.4729C48.4656 9.15222 49.6501 8.06438 51.3423 8.06438C52.8653 8.06438 53.8081 9.03135 53.8081 11.1345V18H57.5793V10.5543C57.5793 6.58974 55.3552 4.80085 52.2609 4.80085ZM73.841 11.5455C73.841 7.36332 70.8917 4.80085 67.0722 4.80085C63.1076 4.80085 60.1342 7.60506 60.1342 11.4971C60.1342 15.365 63.0593 18.1934 67.5557 18.1934C69.9006 18.1934 71.7137 17.4682 72.9224 16.0902L70.9159 13.9145C70.0215 14.7606 69.0303 15.1716 67.6524 15.1716C65.6701 15.1716 64.2922 14.1805 63.9295 12.5608H73.7685C73.7926 12.2465 73.841 11.8356 73.841 11.5455ZM67.0964 7.65341C68.7886 7.65341 70.0215 8.71708 70.2874 10.3609H63.8812C64.1471 8.69291 65.38 7.65341 67.0964 7.65341ZM89.0432 9.20057C90.4211 8.47534 91.2914 7.16993 91.2914 5.47773C91.2914 2.84273 89.1157 1.07801 84.8852 1.07801H76.6176V18H85.3687C89.8168 18 92.1375 16.3078 92.1375 13.3827C92.1375 11.2554 90.9288 9.80492 89.0432 9.20057ZM84.4018 4.02727C86.3115 4.02727 87.351 4.67998 87.351 6.00956C87.351 7.33915 86.3115 8.01603 84.4018 8.01603H80.5097V4.02727H84.4018ZM85.0786 15.0507H80.5097V10.8686H85.0786C87.1093 10.8686 88.1971 11.5455 88.1971 12.9718C88.1971 14.4222 87.1093 15.0507 85.0786 15.0507ZM104.168 4.99424V11.4246C104.168 13.8179 102.911 14.9299 101.17 14.9299C99.5022 14.9299 98.5352 13.9629 98.5352 11.7872V4.99424H94.764V12.3432C94.764 16.3561 97.0606 18.1934 100.324 18.1934C101.92 18.1934 103.37 17.589 104.361 16.4528V18H107.939V4.99424H104.168ZM120.909 0.0626916V6.37218C119.966 5.30851 118.613 4.80085 117.017 4.80085C113.343 4.80085 110.514 7.41167 110.514 11.4971C110.514 15.5826 113.343 18.1934 117.017 18.1934C118.758 18.1934 120.135 17.6374 121.078 16.5012V18H124.68V0.0626916H120.909ZM117.67 15.0991C115.784 15.0991 114.334 13.7453 114.334 11.4971C114.334 9.24891 115.784 7.89516 117.67 7.89516C119.531 7.89516 120.982 9.24891 120.982 11.4971C120.982 13.7453 119.531 15.0991 117.67 15.0991ZM137.647 0.0626916V6.37218C136.704 5.30851 135.35 4.80085 133.755 4.80085C130.08 4.80085 127.252 7.41167 127.252 11.4971C127.252 15.5826 130.08 18.1934 133.755 18.1934C135.495 18.1934 136.873 17.6374 137.816 16.5012V18H141.418V0.0626916H137.647ZM134.408 15.0991C132.522 15.0991 131.072 13.7453 131.072 11.4971C131.072 9.24891 132.522 7.89516 134.408 7.89516C136.269 7.89516 137.719 9.24891 137.719 11.4971C137.719 13.7453 136.269 15.0991 134.408 15.0991ZM154.191 4.99424L150.517 13.8179L146.867 4.99424H142.974L148.607 18.0967L148.559 18.2176C148.051 19.3779 147.471 19.8372 146.431 19.8372C145.682 19.8372 144.884 19.523 144.304 19.0153L142.926 21.6987C143.772 22.4481 145.223 22.8832 146.552 22.8832C148.897 22.8832 150.686 21.9404 151.943 18.7978L157.817 4.99424H154.191Z" fill="white"/>
<path d="M160.783 18.1934C162.088 18.1934 163.128 17.2022 163.128 15.8243C163.128 14.4222 162.088 13.5036 160.783 13.5036C159.477 13.5036 158.438 14.4222 158.438 15.8243C158.438 17.2022 159.477 18.1934 160.783 18.1934Z" fill="#FA8C16"/>
</svg>
